<svg xmlns="http://www.w3.org/2000/svg" viewBox="0 0 516.53 830.86"><defs><style>.a{fill:#fff;}</style></defs><title>pin</title><path class="a" d="M296.26,861.78c-7.45-13.31-14.15-25.35-20.9-37.36C222.07,729.65,168.41,635.08,115.62,540c-27-48.64-51.76-98.53-64.68-153.11C37.79,331.38,32,275.52,47.7,219.22,81.15,98.88,198.78,18.88,322.86,32.41c118.28,12.89,212,101.68,228.92,218.67,7.85,54.41-.35,107.88-16.67,160-18.48,59-48.38,112.8-78.43,166.41Q380.11,714.14,303,850.44C301.07,853.82,299,857.13,296.26,861.78Zm.59-693.72A129.06,129.06,0,0,0,167.21,297.58c0,70.58,58.09,128.54,128.8,128.55,71.52,0,129.73-57.77,129.58-128.64C425.44,225.79,368,168,296.85,168.06Z" transform="translate(-38.26 -30.92)"/></svg>